<svg width="225" height="28" viewBox="0 0 225 28" fill="none" xmlns="http://www.w3.org/2000/svg">
<path d="M10.2124 22.7812C6.87053 22.7812 4.32781 21.7604 2.58423 19.7188C0.861411 17.6771 0 14.9896 0 11.6562C0 8.15625 0.965195 5.40625 2.89559 3.40625C4.82598 1.40625 7.47248 0.40625 10.8351 0.40625C11.5823 0.40625 12.7447 0.489583 14.3223 0.656249H17.8717V7.53125H14.6336L14.1354 4.125C13.3674 3.77083 12.2673 3.59375 10.8351 3.59375C9.75574 3.59375 8.82168 3.82292 8.03292 4.28125C7.26491 4.73958 6.67334 5.36458 6.2582 6.15625C5.86382 6.94792 5.57323 7.78125 5.38641 8.65625C5.1996 9.53125 5.1062 10.4688 5.1062 11.4688C5.1062 12.4896 5.17884 13.4375 5.32414 14.3125C5.46944 15.1667 5.71852 16.0312 6.07139 16.9062C6.42426 17.7604 6.97432 18.4375 7.72156 18.9375C8.46881 19.4375 9.37174 19.6875 10.4303 19.6875C11.6135 19.6875 12.5891 19.5625 13.3571 19.3125V14.8125H11.2087V12.125H19.7709V14.8125H19.0237C18.7954 14.8125 18.5878 14.9167 18.401 15.125C18.2142 15.3333 18.1208 15.5521 18.1208 15.7813V22.5313H15.5677C15.4846 22.3646 15.412 22.25 15.3497 22.1875L15.1006 21.9375C14.9969 21.875 14.8619 21.8438 14.6959 21.8438C13.3674 22.4688 11.8729 22.7812 10.2124 22.7812Z" fill="white"/>
<path d="M36.3014 15.1875H25.3729C25.5597 18.3542 26.9711 19.9375 29.6073 19.9375C30.4583 19.9375 31.1433 19.8125 31.6622 19.5625C32.1811 19.2917 32.6897 18.8229 33.1878 18.1562H35.7721V21.1562C34.07 22.2188 31.8905 22.75 29.2336 22.75C26.5145 22.75 24.4181 22.0417 22.9443 20.625C21.4706 19.1875 20.7337 17.1146 20.7337 14.4062C20.7337 11.8229 21.4706 9.76042 22.9443 8.21875C24.4388 6.65625 26.4315 5.875 28.9223 5.875C31.5169 5.875 33.4058 6.5625 34.5889 7.9375C35.7721 9.29167 36.3636 11.2917 36.3636 13.9375C36.3636 14.3125 36.3533 14.5729 36.3325 14.7188C36.3117 14.8646 36.3014 15.0208 36.3014 15.1875ZM28.9223 8.59375C26.9089 8.59375 25.7465 9.92708 25.4351 12.5938H31.8179C31.7764 12.0104 31.7141 11.5208 31.6311 11.125C31.548 10.7083 31.4131 10.2917 31.2263 9.875C31.0395 9.45833 30.7489 9.14583 30.3545 8.9375C29.9809 8.70833 29.5035 8.59375 28.9223 8.59375Z" fill="white"/>
<path d="M45.7461 22.75C43.2345 22.75 41.1692 21.9792 39.5501 20.4375C37.9519 18.8958 37.1527 16.8854 37.1527 14.4062C37.1527 11.8854 37.9622 9.83333 39.5813 8.25C41.2003 6.66667 43.2553 5.875 45.7461 5.875C48.2992 5.875 50.3645 6.67708 51.942 8.28125C53.5403 9.86458 54.3394 11.9062 54.3394 14.4062C54.3394 16.9271 53.5299 18.9479 51.9109 20.4688C50.2918 21.9896 48.2369 22.75 45.7461 22.75ZM45.7461 19.875C47.1368 19.875 48.1435 19.3438 48.7662 18.2812C49.4097 17.2188 49.7314 15.9375 49.7314 14.4375C49.7314 12.9167 49.42 11.6146 48.7973 10.5313C48.1746 9.42708 47.1575 8.875 45.7461 8.875C44.3554 8.875 43.3383 9.42708 42.6948 10.5313C42.0721 11.6354 41.7608 12.9375 41.7608 14.4375C41.7608 15.375 41.8749 16.2292 42.1032 17C42.3316 17.7708 42.7571 18.4479 43.3798 19.0313C44.0025 19.5938 44.7913 19.875 45.7461 19.875Z" fill="white"/>
<path d="M61.2004 28C56.5301 28 54.1949 26.7396 54.1949 24.2188C54.1949 23.0312 54.8073 22.0521 56.0319 21.2813C56.2603 21.1563 56.6027 20.9896 57.0594 20.7812C56.1668 20.3021 55.7206 19.5104 55.7206 18.4063C55.7206 17.1354 56.3537 16.0833 57.6198 15.25C56.1876 14.25 55.4715 12.9062 55.4715 11.2188C55.4715 9.44792 56.115 8.11458 57.4019 7.21875C58.7096 6.32292 60.2663 5.875 62.0722 5.875C62.7779 5.875 63.5148 5.95833 64.2828 6.125H70.0117V8.875H69.0465C68.922 8.875 68.7767 8.92708 68.6106 9.03125C68.4445 9.15625 68.3615 9.29167 68.3615 9.4375C68.5691 10 68.6729 10.5938 68.6729 11.2188C68.6729 12.9479 68.019 14.2396 66.7113 15.0938C65.4037 15.9479 63.8573 16.375 62.0722 16.375C61.0136 16.375 60.0173 16.2292 59.0832 15.9375C59.0002 16.3958 58.9586 16.75 58.9586 17C58.9586 17.6667 59.4153 18 60.3286 18H64.8744C66.5142 18 67.7803 18.3021 68.6729 18.9062C69.5654 19.4896 70.0117 20.5521 70.0117 22.0938C70.0117 26.0312 67.0746 28 61.2004 28ZM61.3872 25.3125C64.3762 25.3125 65.8707 24.5938 65.8707 23.1563C65.8707 22.6771 65.715 22.3125 65.4037 22.0625C65.0508 21.8333 64.48 21.7188 63.6912 21.7188H58.1491C58.0246 21.9896 57.9623 22.4688 57.9623 23.1563C57.9623 23.6146 58.0557 24 58.2425 24.3125C58.4501 24.625 58.7407 24.8438 59.1143 24.9688C59.4879 25.1146 59.8408 25.2083 60.1729 25.25C60.5258 25.2917 60.9306 25.3125 61.3872 25.3125ZM62.0722 14.0312C62.9232 14.0312 63.5563 13.7813 63.9714 13.2813C64.4073 12.7604 64.6253 12.0729 64.6253 11.2188C64.6253 9.34375 63.7742 8.40625 62.0722 8.40625C61.2211 8.40625 60.5777 8.66667 60.1418 9.1875C59.7267 9.6875 59.5191 10.3646 59.5191 11.2188C59.5191 12.0729 59.737 12.7604 60.1729 13.2813C60.6088 13.7813 61.2419 14.0312 62.0722 14.0312Z" fill="white"/>
<path d="M70.6568 22.5313V19.9375H71.7465C71.9541 19.9375 72.1305 19.8438 72.2758 19.6563C72.4419 19.4896 72.5249 19.3229 72.5249 19.1562V9.71875C72.5249 9.57292 72.4419 9.38542 72.2758 9.15625C72.1098 8.96875 71.9333 8.875 71.7465 8.875H70.5322V6.125H76.1055C76.3961 6.125 76.614 6.28125 76.7593 6.59375C76.9254 6.90625 77.0188 7.54167 77.0395 8.5C78.368 6.8125 79.8728 5.96875 81.5541 5.96875C81.8447 5.96875 82.1768 6.02083 82.5505 6.125V9.5H81.7721C79.8832 9.5 78.3161 9.83333 77.0707 10.5V19.9375H79.3435V22.5313H70.6568Z" fill="white"/>
<path d="M87.7479 22.7188C85.2986 22.7188 83.6899 21.7812 82.9219 19.9062C82.6521 19.3438 82.5172 18.6354 82.5172 17.7813C82.5172 16.0313 83.1295 14.7604 84.3541 13.9688C85.5995 13.1771 87.1356 12.7812 88.9622 12.7812C90.0623 12.7812 91.1728 12.9062 92.2936 13.1562V11.4375C92.2936 9.8125 91.3492 9 89.4603 9C88.6716 9 87.997 9.11458 87.4365 9.34375C86.8969 9.55208 86.3157 9.92708 85.693 10.4688H83.6069V7.125C85.475 6.29167 87.7271 5.875 90.3633 5.875C91.3388 5.875 92.1899 5.94792 92.9164 6.09375C93.6636 6.23958 94.3382 6.5 94.9402 6.875C95.5629 7.22917 96.0299 7.76042 96.3412 8.46875C96.6734 9.15625 96.8394 10 96.8394 11V19.1562C96.8394 19.3438 96.9224 19.5208 97.0885 19.6875C97.2545 19.8542 97.431 19.9375 97.6178 19.9375H98.4896V22.125C98.1782 22.3125 97.7942 22.4688 97.3376 22.5938C96.8186 22.6979 96.2894 22.75 95.7497 22.75C94.0268 22.75 92.9371 22.0625 92.4805 20.6875C91.4011 22.0417 89.8236 22.7188 87.7479 22.7188ZM89.4292 20.0313C90.4048 20.0313 91.3596 19.6458 92.2936 18.875V15.375C91.5879 15.25 90.7888 15.1875 89.8962 15.1875C87.9243 15.1875 86.9384 15.9896 86.9384 17.5938C86.9384 19.2188 87.7686 20.0313 89.4292 20.0313Z" fill="white"/>
<path d="M98.9311 8.875V6.125H100.861V4.875C100.861 1.85417 102.584 0.343749 106.03 0.343749C107.047 0.343749 107.908 0.489583 108.614 0.781249V3.34375H107.68C107.244 3.34375 106.933 3.35417 106.746 3.375C106.559 3.39583 106.321 3.46875 106.03 3.59375C105.615 3.82292 105.407 4.30208 105.407 5.03125V6.125H113.689C114.187 6.125 114.436 6.70833 114.436 7.875V19.1562C114.436 19.3438 114.519 19.5208 114.686 19.6875C114.852 19.8542 115.028 19.9375 115.215 19.9375H116.398V22.5313H108.614V19.9375H109.86V8.875H105.407V19.9375H106.653V22.5313H99.0556V19.9375H100.083C100.291 19.9375 100.467 19.8438 100.612 19.6563C100.778 19.4896 100.861 19.3229 100.861 19.1562V8.875H98.9311ZM113.814 4.15625C113.336 4.61458 112.766 4.84375 112.101 4.84375C111.437 4.84375 110.856 4.61458 110.358 4.15625C109.88 3.67708 109.642 3.10417 109.642 2.4375C109.642 1.75 109.88 1.17708 110.358 0.71875C110.835 0.239583 111.416 0 112.101 0C112.786 0 113.367 0.239583 113.845 0.71875C114.322 1.17708 114.561 1.75 114.561 2.4375C114.561 3.10417 114.312 3.67708 113.814 4.15625Z" fill="white"/>
<path d="M122.974 22.7188C120.753 22.7188 118.781 22.4271 117.059 21.8438V18.1562H119.674C119.861 18.7604 120.276 19.2292 120.919 19.5625C121.563 19.875 122.237 20.0313 122.943 20.0313C123.69 20.0313 124.344 19.8854 124.905 19.5938C125.465 19.2812 125.745 18.7813 125.745 18.0938C125.745 17.4896 125.517 17.0313 125.06 16.7188C124.562 16.4271 123.68 16.1875 122.414 16C120.712 15.75 119.425 15.2708 118.553 14.5625C117.681 13.8333 117.245 12.6667 117.245 11.0625C117.245 9.29167 117.879 8 119.145 7.1875C120.432 6.35417 122.02 5.9375 123.908 5.9375C126.192 5.9375 128.06 6.17708 129.513 6.65625V10.2812H126.991C126.347 9.21875 125.268 8.6875 123.753 8.6875C123.068 8.6875 122.455 8.82292 121.916 9.09375C121.397 9.34375 121.137 9.78125 121.137 10.4062C121.137 10.6354 121.189 10.8542 121.293 11.0625C121.584 11.7083 122.653 12.1562 124.5 12.4062C125.455 12.5521 126.223 12.7188 126.804 12.9062C127.406 13.0729 127.977 13.3333 128.516 13.6875C129.056 14.0417 129.451 14.5313 129.7 15.1563C129.949 15.7604 130.073 16.5104 130.073 17.4063C130.073 18.4063 129.876 19.2708 129.482 20C129.087 20.7083 128.537 21.2604 127.831 21.6563C127.146 22.0313 126.399 22.3021 125.59 22.4688C124.801 22.6354 123.929 22.7188 122.974 22.7188Z" fill="white"/>
<path d="M130.708 22.5313V19.9375H131.798C132.005 19.9375 132.182 19.8438 132.327 19.6563C132.493 19.4896 132.576 19.3229 132.576 19.1562V4.1875C132.576 4.04167 132.493 3.85417 132.327 3.625C132.182 3.4375 132.005 3.34375 131.798 3.34375H130.614V0.656249H136.343C136.862 0.656249 137.122 1.01042 137.122 1.71875V14.1563L141.232 10.125C141.481 9.85417 141.584 9.57292 141.543 9.28125C141.481 9.01042 141.294 8.875 140.982 8.875H140.36V6.125H147.739V8.875H146.867C146.66 8.875 146.431 8.92708 146.182 9.03125C145.933 9.15625 145.725 9.30208 145.559 9.46875L142.072 12.875L146.338 19.0625C146.732 19.6458 147.137 19.9375 147.552 19.9375H147.863V22.5313H143.411L138.959 15.9063L137.122 17.6875V19.9375H138.71V22.5313H130.708Z" fill="white"/>
<path d="M153.757 22.5313V19.9375H154.94C155.147 19.9375 155.345 19.8333 155.531 19.625C155.739 19.3958 155.843 19.1771 155.843 18.9688V4.3125C155.843 4.08333 155.749 3.86458 155.563 3.65625C155.376 3.44792 155.168 3.34375 154.94 3.34375H153.757V0.656249H163.16V3.34375H160.7V9.96875H168.702V3.34375H166.242V0.656249H175.676V3.34375H174.462C174.233 3.34375 174.026 3.44792 173.839 3.65625C173.652 3.86458 173.559 4.08333 173.559 4.3125V18.9688C173.559 19.1771 173.652 19.3958 173.839 19.625C174.047 19.8333 174.254 19.9375 174.462 19.9375H175.676V22.5313H166.242V19.9375H168.702V12.75H160.7V19.9375H163.16V22.5313H153.757Z" fill="white"/>
<path d="M181.61 22.7188C179.161 22.7188 177.552 21.7812 176.784 19.9062C176.514 19.3438 176.379 18.6354 176.379 17.7813C176.379 16.0313 176.992 14.7604 178.216 13.9688C179.462 13.1771 180.998 12.7812 182.824 12.7812C183.924 12.7812 185.035 12.9062 186.156 13.1562V11.4375C186.156 9.8125 185.211 9 183.322 9C182.534 9 181.859 9.11458 181.299 9.34375C180.759 9.55208 180.178 9.92708 179.555 10.4688H177.469V7.125C179.337 6.29167 181.589 5.875 184.225 5.875C185.201 5.875 186.052 5.94792 186.778 6.09375C187.526 6.23958 188.2 6.5 188.802 6.875C189.425 7.22917 189.892 7.76042 190.203 8.46875C190.535 9.15625 190.702 10 190.702 11V19.1562C190.702 19.3438 190.785 19.5208 190.951 19.6875C191.117 19.8542 191.293 19.9375 191.48 19.9375H192.352V22.125C192.04 22.3125 191.656 22.4688 191.2 22.5938C190.681 22.6979 190.151 22.75 189.612 22.75C187.889 22.75 186.799 22.0625 186.343 20.6875C185.263 22.0417 183.686 22.7188 181.61 22.7188ZM183.291 20.0313C184.267 20.0313 185.222 19.6458 186.156 18.875V15.375C185.45 15.25 184.651 15.1875 183.758 15.1875C181.786 15.1875 180.8 15.9896 180.8 17.5938C180.8 19.2188 181.631 20.0313 183.291 20.0313Z" fill="white"/>
<path d="M198.545 22.5313L193.438 9.75C193.231 9.16667 192.899 8.875 192.442 8.875H191.851V6.125H199.79V8.875H197.735L201.067 18.25H201.129L203.775 10.9375C203.983 10.3333 204.076 9.83333 204.056 9.4375C204.035 9.0625 203.672 8.875 202.966 8.875H202.468V6.125H209.38V8.875H208.85C208.332 8.875 207.937 9.19792 207.667 9.84375L202.468 22.5313H198.545Z" fill="white"/>
<path d="M224.938 15.1875H214.009C214.196 18.3542 215.607 19.9375 218.244 19.9375C219.095 19.9375 219.78 19.8125 220.299 19.5625C220.817 19.2917 221.326 18.8229 221.824 18.1562H224.408V21.1562C222.706 22.2188 220.527 22.75 217.87 22.75C215.151 22.75 213.054 22.0417 211.581 20.625C210.107 19.1875 209.37 17.1146 209.37 14.4062C209.37 11.8229 210.107 9.76042 211.581 8.21875C213.075 6.65625 215.068 5.875 217.559 5.875C220.153 5.875 222.042 6.5625 223.225 7.9375C224.408 9.29167 225 11.2917 225 13.9375C225 14.3125 224.99 14.5729 224.969 14.7188C224.948 14.8646 224.938 15.0208 224.938 15.1875ZM217.559 8.59375C215.545 8.59375 214.383 9.92708 214.071 12.5938H220.454C220.413 12.0104 220.35 11.5208 220.267 11.125C220.184 10.7083 220.049 10.2917 219.863 9.875C219.676 9.45833 219.385 9.14583 218.991 8.9375C218.617 8.70833 218.14 8.59375 217.559 8.59375Z" fill="white"/>
</svg>
