<svg width="37" height="61" viewBox="0 0 37 61" fill="none" xmlns="http://www.w3.org/2000/svg">
<path d="M34.1125 0.614258L22.4284 1.91249C21.8858 1.96827 21.4396 2.35876 21.3128 2.88616L18.0114 16.1829H5.69342C2.82818 16.1829 0.500488 18.5106 0.500488 21.3758C0.500488 22.0909 1.07861 22.6741 1.79872 22.6741H35.5528C36.2729 22.6741 36.851 22.0909 36.851 21.3758C36.851 18.5106 34.5233 16.1829 31.6581 16.1829H20.689L23.61 4.38725L34.3965 3.19044L34.1125 0.614258ZM3.36573 25.2705L6.99672 59.1615C7.07279 59.8208 7.62555 60.3228 8.28988 60.3228H29.0616C29.7259 60.3228 30.2787 59.8208 30.3548 59.1615L33.9858 25.2705H3.36573Z" fill="#F1F1F1"/>
</svg>
