<svg width="60" height="60" viewBox="0 0 60 60" fill="none" xmlns="http://www.w3.org/2000/svg">
<path d="M49.3845 32.5257C49.3845 39.0565 42.496 44.5027 33.4614 45.6334V40.8334L38.0191 36.3796C39.3806 35.0411 39.4037 32.8488 38.0652 31.4757C37.7441 31.1462 37.36 30.8846 36.9359 30.7062C36.5118 30.5278 36.0561 30.4364 35.596 30.4373C34.8114 30.4373 34.0729 30.7142 33.4614 31.1988V19.4757C33.4614 17.5719 31.9037 16.0142 29.9998 16.0142C28.0845 16.0142 26.5383 17.5719 26.5383 19.4757V20.745C25.9268 20.2719 25.1883 19.995 24.4037 19.995C23.4691 19.995 22.5922 20.3642 21.9345 21.0334C20.596 22.4065 20.6191 24.5988 21.9806 25.9257L26.5383 30.3911V45.6219C17.5037 44.5027 10.6152 39.0565 10.6152 32.5257C10.6152 29.6988 11.9191 26.9527 14.3075 24.6796C13.692 23.4925 13.3714 22.1745 13.3729 20.8373C13.3729 17.4219 15.4729 14.3527 18.5999 13.0719C18.5883 12.9796 18.5883 12.8757 18.5883 12.7719C18.5883 7.00267 23.2845 2.30652 29.0422 2.30652C34.8114 2.30652 39.5075 7.00267 39.5075 12.7719C39.5075 12.8757 39.5075 12.9796 39.496 13.0719C42.6229 14.3527 44.7229 17.4219 44.7229 20.8373C44.7229 21.7257 44.5729 22.6142 44.2845 23.4911C47.5845 25.9488 49.3845 29.1219 49.3845 32.5257Z" fill="#87A669"/>
<path d="M36.4002 34.7273C36.619 34.5133 36.7439 34.2211 36.7472 33.915C36.7506 33.6089 36.6322 33.314 36.4181 33.0952C36.2041 32.8764 35.9119 32.7516 35.6058 32.7483C35.2997 32.7449 35.0048 32.8633 34.786 33.0773L31.1537 36.6358V19.4746C31.1537 19.1686 31.0321 18.8751 30.8158 18.6588C30.5994 18.4424 30.3059 18.3208 29.9999 18.3208C29.6938 18.3208 29.4004 18.4424 29.184 18.6588C28.9676 18.8751 28.846 19.1686 28.846 19.4746V26.19L25.2137 22.6327C24.9949 22.4187 24.7 22.3003 24.3939 22.3036C24.0879 22.307 23.7957 22.4318 23.5816 22.6506C23.3675 22.8694 23.2492 23.1643 23.2525 23.4704C23.2559 23.7765 23.3807 24.0687 23.5995 24.2827L28.846 29.4185V56.5385C28.846 56.8445 28.9676 57.138 29.184 57.3544C29.4004 57.5708 29.6938 57.6923 29.9999 57.6923C30.3059 57.6923 30.5994 57.5708 30.8158 57.3544C31.0321 57.138 31.1537 56.8445 31.1537 56.5385V39.8654L36.4002 34.7273Z" fill="#87A669"/>
</svg>
